<?xml version="1.0" encoding="utf-8"?>
<!-- Generator: Adobe Illustrator 23.0.4, SVG Export Plug-In . SVG Version: 6.00 Build 0)  -->
<svg version="1.1" id="logo" xmlns="http://www.w3.org/2000/svg" xmlns:xlink="http://www.w3.org/1999/xlink" x="0px" y="0px"
	 viewBox="0 0 1641.2 1641.2" style="enable-background:new 0 0 1641.2 1641.2;" xml:space="preserve">
<style type="text/css">
	.logo_st0{fill:#F95584;}
	.logo_st1{fill:#6CCCCC;}
	.logo_st2{fill:#F95584;}
</style>
<g>
	<polygon class="logo_st0" points="944.7,184.5 923.4,205.7 1540.4,822.6 944.7,1418.4 348.9,822.6 965.9,205.7 944.7,184.5 923.4,205.7 
		944.7,184.5 923.4,163.3 264.1,822.6 944.7,1503.2 1625.2,822.6 944.7,142.1 923.4,163.3 	"/>
	<polygon class="logo_st1" points="822.7,184.5 801.4,205.7 1418.4,822.6 822.7,1418.4 226.9,822.6 843.9,205.7 822.7,184.5 801.4,205.7 
		822.7,184.5 801.4,163.3 142.1,822.6 822.7,1503.2 1503.2,822.6 822.7,142.1 801.4,163.3 	"/>
	<polygon class="logo_st2" points="704.7,184.5 683.4,205.7 1300.4,822.6 704.7,1418.4 108.9,822.6 725.9,205.7 704.7,184.5 683.4,205.7 
		704.7,184.5 683.4,163.3 24.1,822.6 704.7,1503.2 1385.2,822.6 704.7,142.1 683.4,163.3 	"/>
	
		<rect x="1018.6" y="532.7" transform="matrix(0.7071 -0.7071 0.7071 0.7071 -205.7849 958.8455)" class="logo_st2" width="71.9" height="390.3"/>
	
		<rect x="918.1" y="632" transform="matrix(0.7071 -0.7071 0.7071 0.7071 -305.4314 916.8622)" class="logo_st2" width="71.9" height="390.3"/>
	
		<rect x="817.6" y="731.3" transform="matrix(0.7071 -0.7071 0.7071 0.7071 -405.0777 874.8798)" class="logo_st2" width="71.9" height="390.3"/>
	<circle class="logo_st2" cx="541.3" cy="822.8" r="47"/>
</g>
</svg>
