<?xml version="1.0" encoding="utf-8"?>
<!-- Generator: Adobe Illustrator 23.0.4, SVG Export Plug-In . SVG Version: 6.00 Build 0)  -->
<svg version="1.1" id="typescript-icon" xmlns="http://www.w3.org/2000/svg" xmlns:xlink="http://www.w3.org/1999/xlink" x="0px" y="0px"
	 viewBox="0 0 819 830.2" style="enable-background:new 0 0 819 830.2;" xml:space="preserve">
<style type="text/css">
	.ts_st0{fill:#181C22;}
	.td_st1{fill:#66CCCC;}
</style>
<path class="ts_st0" d="M366.5,624.8c-44,11.4-90.5-5.8-116.4-43.1c-15.7-22-21.9-49.3-17.1-75.9c0.8-4.3,1.9-8.6,3.3-12.7l2.6-7.8
	l7,5.1c16.2,11.9,34.2,20.9,53.4,26.7l5.1,1.5l-0.5,5.1c-0.6,7.2,1.3,14.4,5.5,20.3c7.8,11.3,21.8,16.4,35,13c3-0.8,5.8-2,8.4-3.7
	l136.5-87c6.8-4.3,11.4-11.1,12.8-19c1.4-8-0.4-16.3-5.2-22.9c-7.8-11.3-21.8-16.4-35.1-13c-3,0.8-5.8,2-8.4,3.7l-52.1,33.2
	c-8.6,5.4-17.9,9.6-27.7,12.2c-44,11.4-90.5-5.8-116.4-43.1c-15.7-22-21.9-49.3-17.1-75.9c4.7-26.1,20.1-49,42.6-63.1l136.5-87
	c8.6-5.5,17.9-9.6,27.7-12.2c44-11.4,90.5,5.8,116.4,43.1c15.7,22,21.9,49.3,17.1,75.9c-0.8,4.3-1.9,8.6-3.3,12.7l-2.6,7.8l-7-5.1
	c-16.2-11.9-34.2-20.9-53.4-26.7l-5.1-1.5l0.5-5.1c0.6-7.2-1.3-14.4-5.5-20.3c-7.8-11.3-21.8-16.4-35-13c-3,0.8-5.8,2-8.4,3.7
	l-136.5,87c-6.8,4.3-11.4,11.1-12.8,19c-1.4,8,0.4,16.3,5.2,22.9c7.8,11.3,21.8,16.4,35.1,13c3-0.8,5.8-2,8.4-3.7l52.1-33.2
	c8.6-5.5,17.9-9.6,27.7-12.2c44-11.4,90.5,5.8,116.4,43.1c15.7,22,21.9,49.3,17.1,75.9c-4.7,26.1-20.1,49-42.5,63.1l-136.5,87
	C385.6,618,376.3,622.1,366.5,624.8"/>
<g>
	<polygon class="td_st1" points="163,413 163,657 407,657 651,657 651,413 651,169 407,169 163,169 	"/>
	<path class="ts_st0" d="M270.9,414.6l-0.2,20h31.8h31.8v90.2v90.2h22.5h22.5v-90.2v-90.2H411h31.8V415c0-10.8-0.2-19.9-0.5-20.1
		c-0.2-0.3-38.9-0.5-85.7-0.4l-85.3,0.2L270.9,414.6z"/>
	<path class="ts_st0" d="M556.8,394.1c12.4,3.1,21.8,8.6,30.5,17.6c4.5,4.8,11.2,13.6,11.7,15.6c0.2,0.6-21.1,14.9-33.9,22.9
		c-0.5,0.3-2.3-1.7-4.4-4.8c-6.3-9.1-12.9-13.1-22.9-13.8c-14.8-1-24.3,6.7-24.2,19.7c0,3.8,0.5,6,2.1,9.1c3.3,6.7,9.3,10.8,28.3,19
		c34.9,15,49.9,24.9,59.2,39c10.4,15.7,12.7,40.8,5.7,59.5c-7.7,20.3-27,34.1-54,38.7c-8.4,1.5-28.2,1.2-37.2-0.4
		c-19.6-3.5-38.2-13.2-49.7-25.9c-4.5-5-13.2-17.9-12.7-18.8c0.2-0.3,2.2-1.5,4.5-2.9c2.2-1.2,10.4-6,18.1-10.5l14-8.1l2.9,4.3
		c4.1,6.3,13.1,14.9,18.5,17.7c15.6,8.2,36.9,7,47.5-2.4c4.5-4.1,6.4-8.4,6.4-14.6c0-5.7-0.7-8.1-3.6-12.4
		c-3.8-5.4-11.5-10-33.5-19.5c-25.2-10.8-36-17.6-45.9-28.3c-5.7-6.2-11.2-16.1-13.4-24.4c-1.9-6.9-2.3-24.2-0.9-31.1
		c5.2-24.3,23.5-41.3,50-46.3C528.3,391.4,548.3,392.1,556.8,394.1z"/>
</g>
<g>
</g>
<g>
</g>
<g>
</g>
<g>
</g>
<g>
</g>
<g>
</g>
<g>
</g>
<g>
</g>
<g>
</g>
<g>
</g>
<g>
</g>
<g>
</g>
<g>
</g>
<g>
</g>
<g>
</g>
</svg>
